# xmcd
#
# Track frame offsets:
#	150
#	10128
#	22620
#	35733
#	48972
#	62390
#	72481
#	83765
#	95115
#	107336
#
# Disc length: 1643 seconds
#
# Revision: 0
# Processed by: cddbd v1.5PL3 Copyright (c) Steve Scherf et al.
# Submitted via: dBpowerAMP V4.0
#
DISCID=7106690a
DTITLE=Jim Ed Brown - At His Best
DYEAR=1900
DGENRE=Country
TTITLE0=Southern Living
TTITLE1=Unbelieveable Love
TTITLE2=Morning
TTITLE3=Evening
TTITLE4=How I Love Them Old Songs
TTITLE5=Pop A Top
TTITLE6=Angel's Sunday
TTITLE7=Broad-Minded Man
TTITLE8=Bottle, Bottle
TTITLE9=She's Leavin'
EXTD=
EXTT0=
EXTT1=
EXTT2=
EXTT3=
EXTT4=
EXTT5=
EXTT6=
EXTT7=
EXTT8=
EXTT9=
PLAYORDER=
